<svg width="95" height="95" viewBox="0 0 95 95" fill="none" xmlns="http://www.w3.org/2000/svg">
<g clipPath="url(#clip0_1_6778)">
<path d="M72.0335 52.3434L72.0333 52.3442C71.9724 52.2827 71.9765 52.2863 72.0335 52.3434Z" fill="black"/>
<path d="M53.0345 2.00586H41.9085C41.5956 2.00586 41.3168 2.19216 41.1937 2.47168L41.1507 2.59766L40.0208 7.30078L39.7308 8.50586L38.5228 8.78223C34.2618 9.75831 30.2083 11.4405 26.4329 13.7969L25.3988 14.4424L24.3509 13.8184L20.3363 11.4258L20.3353 11.4268C20.0274 11.2439 19.6351 11.2921 19.3792 11.5469L11.5384 19.3867C11.2849 19.6403 11.2371 20.0329 11.4193 20.3389L13.8118 24.3564L14.4359 25.4043L13.7904 26.4395C11.4341 30.2147 9.75277 34.2674 8.77669 38.5283L8.49934 39.7363L7.29427 40.0264L2.58723 41.1582C2.24232 41.2464 2.00047 41.5575 2.00032 41.9141V53.04C2.00032 53.399 2.24403 53.7086 2.58626 53.7949L7.29427 54.9258L8.50032 55.2148L8.77669 56.4238C9.75292 60.6882 11.4321 64.7405 13.7904 68.5146L14.4368 69.5498L13.8118 70.5986L11.4193 74.6152C11.2367 74.9218 11.286 75.3149 11.5394 75.5684L19.3773 83.4062C19.6395 83.6666 20.0362 83.7076 20.3294 83.5322L20.3333 83.5303L24.3509 81.1367L25.3988 80.5127L26.4329 81.1582C30.2083 83.5146 34.2618 85.1968 38.5228 86.1729L39.7308 86.4492L40.0208 87.6543L41.1517 92.3574C41.2388 92.7051 41.5508 92.9491 41.9085 92.9492H53.0345C53.3922 92.9492 53.7052 92.7052 53.7923 92.3574L54.9232 87.6523L55.2122 86.4482L56.4183 86.1699C58.2952 85.7372 60.126 85.1562 61.9124 84.4443L51.6575 74.1895C48.2497 74.7095 45.8201 74.364 45.3411 74.3271L45.3421 74.3262C30.883 73.2446 20.5325 61.4168 20.4681 47.5732V47.5723C20.4114 32.5881 32.4139 20.4463 47.4613 20.4463C62.168 20.4464 74.3496 32.2453 74.4827 47.2158L74.4798 47.9307C74.4724 48.3928 74.3571 49.5677 74.2572 50.5186C74.2188 50.8838 74.176 51.2696 74.137 51.6162C76.056 53.5413 81.3084 58.8145 84.4271 61.9463C85.1446 60.1507 85.7305 58.3106 86.1654 56.4238L86.4427 55.2178L87.6468 54.9287L92.3607 53.7939C92.7012 53.7066 92.9437 53.3979 92.9437 53.04V41.9141C92.9435 41.5581 92.702 41.2469 92.3568 41.1582L87.6488 40.0264L86.4437 39.7363L86.1673 38.5283C85.1912 34.2673 83.509 30.2148 81.1527 26.4395L80.5072 25.4043L81.1312 24.3564L83.5238 20.3398C83.7063 20.0333 83.658 19.6401 83.4046 19.3867L75.5618 11.5449C75.3082 11.2914 74.9156 11.2425 74.6097 11.4248L70.5921 13.8184L69.5443 14.4424L68.5101 13.7969C64.7347 11.4405 60.6813 9.75831 56.4202 8.78223L55.2122 8.50586L54.9232 7.30078L53.7923 2.59766C53.7052 2.24988 53.3923 2.00586 53.0345 2.00586Z" fill="#FDFDFD" stroke="#263956" stroke-width="4"/>
<path d="M60.9925 45.4072C59.5548 37.5718 51.7158 31.8902 42.9788 34.1104C42.5589 34.2171 42.227 34.5425 42.1116 34.9629C41.9967 35.3823 42.1156 35.8311 42.4232 36.1387L47.4544 41.1709C49.5501 43.2667 49.5501 46.6777 47.4544 48.7734C45.357 50.8706 41.9492 50.8707 39.8519 48.7734L34.8226 43.7432C34.5132 43.434 34.0643 43.3151 33.6468 43.4297V43.4307C33.2275 43.5455 32.9019 43.8769 32.7943 44.2988C30.8211 52.0426 35.2266 59.4218 41.4036 61.6016C44.9052 62.8371 48.4533 62.8522 51.6156 61.7236L52.1917 61.5176L52.6253 61.9502L76.4515 85.7773C77.5857 86.9116 79.4247 86.9115 80.5589 85.7773L84.4593 81.877C85.5958 80.7404 85.5983 78.9105 84.4671 77.7793L60.6322 53.9434L60.1986 53.5107L60.4046 52.9336C61.2474 50.5719 61.4569 47.9999 60.9935 45.4062L60.9925 45.4072Z" fill="white" stroke="#253856" stroke-width="1.93617"/>
</g>
<defs>
<clipPath id="clip0_1_6778">
<rect width="94.9554" height="94.9554" fill="white" transform="matrix(-1 0 0 1 94.9554 0)"/>
</clipPath>
</defs>
</svg>
