<svg width="121" height="100" viewBox="0 0 121 100" fill="none" xmlns="http://www.w3.org/2000/svg">
<path d="M84.1621 54.6891L84.1619 54.6899C84.101 54.6284 84.105 54.632 84.1621 54.6891Z" fill="black"/>
<path d="M65.8584 6.22998H55.1396C54.8532 6.23009 54.5981 6.40073 54.4854 6.65674L54.4463 6.77197L53.3564 11.3022L53.0723 12.4858L51.8857 12.7573C47.7849 13.6967 43.8846 15.3156 40.251 17.5835L39.2344 18.2173L38.2061 17.605L34.3379 15.3003C34.0909 15.1536 33.7846 15.1696 33.5547 15.3325L33.4609 15.4106L25.9082 22.9644C25.6761 23.1968 25.632 23.5564 25.7988 23.8364L28.1035 27.7065L28.7168 28.7358L28.083 29.7515C25.8151 33.3851 24.1963 37.2854 23.2568 41.3862L22.9854 42.5728L21.8018 42.8579L17.2646 43.9487C16.9502 44.0305 16.7296 44.3145 16.7295 44.6401V55.3589C16.7295 55.6475 16.9015 55.902 17.1553 56.0132L17.2686 56.0513L21.8008 57.1392L22.9854 57.4233L23.2568 58.6108C24.1964 62.7149 25.8123 66.6151 28.082 70.2476L28.7178 71.2632L28.1045 72.2925L25.7988 76.1636C25.632 76.4442 25.6762 76.8036 25.9082 77.0356L33.4639 84.5903C33.7047 84.826 34.0657 84.862 34.332 84.7026L34.3359 84.7007L38.2061 82.395L39.2354 81.7817L40.251 82.4165C43.8845 84.6843 47.785 86.3023 51.8857 87.2417L53.0723 87.5142L53.3574 88.6968L54.4492 93.2339C54.5312 93.5489 54.8143 93.7698 55.1396 93.77H65.8584C66.1452 93.77 66.401 93.5987 66.5137 93.3423L66.5527 93.228L67.6416 88.6948L67.9258 87.5132L69.1104 87.2397C70.8981 86.8275 72.6421 86.2747 74.3447 85.5991L64.5186 75.7729C61.2408 76.2705 58.9044 75.9373 58.4443 75.9019C44.4951 74.858 34.5104 63.4474 34.4482 50.0923V50.0903C34.3938 35.6345 45.9723 23.9214 60.4893 23.9214C74.6775 23.9215 86.4298 35.3039 86.5586 49.7466L86.5557 50.437C86.5484 50.8844 86.437 52.018 86.3408 52.9331C86.3045 53.2784 86.2636 53.6434 86.2266 53.9731C88.077 55.8295 93.0853 60.8583 96.0879 63.8735C96.769 62.1618 97.3259 60.4084 97.7402 58.6108L98.0127 57.4263L99.1943 57.1421L103.731 56.0513H103.73C104.045 55.9732 104.27 55.6887 104.27 55.3589V44.6401C104.269 44.3128 104.047 44.0258 103.729 43.9458L99.1973 42.8569L98.0137 42.5728L97.7422 41.3862C96.8028 37.2854 95.1839 33.3851 92.916 29.7515L92.2822 28.7349L92.8945 27.7065L95.2002 23.8364C95.3674 23.5556 95.323 23.1956 95.0908 22.9634L87.5352 15.4087C87.3028 15.1764 86.9432 15.1324 86.6631 15.2993L82.793 17.605L81.7637 18.2173L80.748 17.5835C77.1143 15.3155 73.2132 13.6967 69.1123 12.7573L67.9258 12.4858L67.6416 11.3022L66.5527 6.77197C66.4729 6.45338 66.1861 6.22998 65.8584 6.22998Z" fill="#FDFDFD" stroke="#263956" stroke-width="3.92761"/>
<path d="M73.5073 48.0083C72.124 40.4698 64.5818 35.003 56.1753 37.1392C55.777 37.2404 55.4616 37.5491 55.3521 37.9478C55.2565 38.2961 55.3315 38.6662 55.5474 38.9487L55.6479 39.064L60.4956 43.9116C62.5214 45.9377 62.5216 49.2353 60.4956 51.2612C58.468 53.2886 55.1735 53.2886 53.146 51.2612L48.3003 46.4155C48.0069 46.1222 47.5819 46.0093 47.186 46.1177H47.1851C46.7873 46.2266 46.4785 46.5417 46.3765 46.9419C44.4778 54.3934 48.7176 61.4936 54.6597 63.5903C58.0293 64.7793 61.4427 64.7932 64.4849 63.7075L65.0513 63.5054L65.4771 63.9302L88.3804 86.8345C89.4939 87.9478 91.299 87.9477 92.4126 86.8345L96.0688 83.1782C97.1851 82.062 97.1887 80.2662 96.0786 79.1558L73.1655 56.2417L72.7397 55.8169L72.9419 55.2505C73.7527 52.9783 73.9543 50.5031 73.5083 48.0073L73.5073 48.0083Z" fill="white" stroke="#253856" stroke-width="1.90113"/>
</svg>
