<svg width="121" height="100" viewBox="0 0 121 100" fill="none" xmlns="http://www.w3.org/2000/svg">
<path d="M25.9565 15.4565H35.5518V9.05957H19.5596V25.0516H25.9565V15.4565Z" fill="white"/>
<path d="M25.9565 74.9468H19.5596V90.939H35.5518V84.5421H25.9565V74.9468Z" fill="white"/>
<path d="M95.0402 84.5421H85.4448V90.939H101.437V74.9468H95.0402V84.5421Z" fill="white"/>
<path d="M85.4448 9.05957V15.4565H95.0402V25.0516H101.437V9.05957H85.4448Z" fill="white"/>
<path d="M57.3037 46.8008H63.7006V53.1977H57.3037V46.8008Z" fill="white"/>
<path d="M101.44 46.8014H77.7998C76.4828 39.6605 70.839 34.0167 63.6981 32.6998V9.05957H57.3012V32.6998C50.1604 34.0167 44.5166 39.6605 43.1996 46.8014H19.5596V53.1983H43.1996C44.5166 60.339 50.1604 65.9828 57.3012 67.2998V90.9398H63.6981V67.2999C70.839 65.983 76.4826 60.3391 77.7998 53.1984H101.44V46.8014ZM60.4997 61.1944C54.327 61.1944 49.3051 56.1725 49.3051 49.9998C49.3051 43.8272 54.327 38.8053 60.4997 38.8053C66.6724 38.8053 71.6942 43.8272 71.6942 49.9998C71.6942 56.1725 66.6724 61.1944 60.4997 61.1944Z" fill="white"/>
</svg>
