<svg width="82" height="82" viewBox="0 0 82 82" fill="none" xmlns="http://www.w3.org/2000/svg">
<g clipPath="url(#clip0_1_6754)">
<path d="M6.36138 6.36138H15.9035V0H0V15.9033H6.36138V6.36138Z" fill="white"/>
<path d="M6.36138 65.522H0V81.4254H15.9035V75.0641H6.36138V65.522Z" fill="white"/>
<path d="M75.0616 75.0641H65.5195V81.4254H81.423V65.522H75.0616V75.0641Z" fill="white"/>
<path d="M65.5195 0V6.36138H75.0616V15.9033H81.423V0H65.5195Z" fill="white"/>
<path d="M37.5352 37.5317H43.8965V43.8931H37.5352V37.5317Z" fill="white"/>
<path d="M81.4259 37.5323H57.9169C56.6072 30.4311 50.9948 24.8186 43.8935 23.509V0H37.5322V23.509C30.4309 24.8186 24.8185 30.4311 23.5088 37.5323H0V43.8937H23.5088C24.8185 50.9948 30.4309 56.6072 37.5322 57.9169V81.4257H43.8935V57.9171C50.9948 56.6074 56.6071 50.9949 57.9169 43.8939H81.4259V37.5323ZM40.7129 51.8454C34.5744 51.8454 29.5804 46.8514 29.5804 40.713C29.5804 34.5746 34.5744 29.5806 40.7129 29.5806C46.8513 29.5806 51.8453 34.5746 51.8453 40.713C51.8453 46.8514 46.8513 51.8454 40.7129 51.8454Z" fill="white"/>
</g>
<defs>
<clipPath id="clip0_1_6754">
<rect width="81.4259" height="81.4259" fill="white"/>
</clipPath>
</defs>
</svg>
