<svg width="1478" height="536" viewBox="0 0 1478 536" fill="none" xmlns="http://www.w3.org/2000/svg">
<g clip-path="url(#clip0_215_2078)">
<path d="M929.534 209.436C937.475 245.689 934.667 283.472 921.455 318.153C908.243 352.835 885.2 382.909 855.151 404.689C825.101 426.47 789.35 439.012 752.279 440.777C715.208 442.542 678.428 433.455 646.445 414.628C614.461 395.801 588.665 368.053 572.217 334.784C555.769 301.515 549.384 264.17 553.843 227.326C558.303 190.482 573.415 155.739 597.325 127.356C621.236 98.9718 652.908 78.1799 688.46 67.5279" stroke="#D9D9D9" stroke-opacity="0.49"/>
<path d="M688.524 84.1879L690.382 76.7661L692.273 83.0616L688.524 84.1879Z" fill="white"/>
<path d="M628.931 184.377L632.816 190.968L627.05 187.811L628.931 184.377Z" fill="white"/>
<path d="M801.944 132.4L802.357 140.04L805.411 134.219L801.944 132.4Z" fill="white"/>
<path d="M858.536 322.742L855.411 315.758L860.788 319.54L858.536 322.742Z" fill="white"/>
<path d="M797.809 416.148L795.951 423.569L794.06 417.274L797.809 416.148Z" fill="white"/>
<path d="M686.088 374.468L685.574 366.834L682.597 372.695L686.088 374.468Z" fill="white"/>
<path d="M806.744 445.89L801.103 440.72L802.994 447.016L806.744 445.89Z" fill="white"/>
<path d="M679.732 54.9199L685.372 60.0892L683.481 53.7936L679.732 54.9199Z" fill="white"/>
<path d="M693.379 56.283L696.556 66.8599" stroke="white"/>
<path d="M702.499 54.3357L705.164 65.0532" stroke="white"/>
<path d="M712.53 52.5837L714.397 63.4687" stroke="white"/>
<path d="M722.462 51.1121L723.759 62.0794" stroke="white"/>
<path d="M732.264 50.5388L733.192 61.5436" stroke="white"/>
<path d="M742.23 50.1558L742.622 61.1927" stroke="white"/>
<path d="M752.215 50.1871L751.904 61.2266" stroke="white"/>
<path d="M762.009 51.0034L761.257 62.0217" stroke="white"/>
<path d="M771.995 52.0378L770.47 62.9759" stroke="white"/>
<path d="M781.843 53.8364L779.645 64.6594" stroke="white"/>
<path d="M791.189 55.5984L788.992 66.4214" stroke="white"/>
<path d="M801.047 58.5935L797.995 69.2074" stroke="white"/>
<path d="M810.828 61.8865L806.597 72.0875" stroke="white"/>
<path d="M819.839 65.4949L815.521 75.6594" stroke="white"/>
<path d="M837.724 73.6746L832.572 83.443" stroke="white"/>
<path d="M846.364 78.687L840.759 88.2028" stroke="white"/>
<path d="M854.663 83.783L848.831 93.1611" stroke="white"/>
<path d="M862.895 89.5671L856.311 98.4339" stroke="white"/>
<path d="M870.706 95.7241L863.746 104.299" stroke="white"/>
<path d="M878.404 102.09L871.067 110.343" stroke="white"/>
<path d="M885.678 109.092L877.983 117.013" stroke="white"/>
<path d="M892.333 115.838L884.416 123.538" stroke="white"/>
<path d="M899.081 123.667L890.249 130.297" stroke="white"/>
<path d="M905.046 131.329L896.214 137.959" stroke="white"/>
<path d="M911.109 139.457L901.84 145.46" stroke="white"/>
<path d="M916.522 147.83L906.78 153.031" stroke="white"/>
<path d="M921.047 156.684L911.058 161.396" stroke="white"/>
<path d="M925.962 165.369L915.703 169.458" stroke="white"/>
<path d="M929.802 174.742L919.319 178.218" stroke="white"/>
<path d="M933.005 183.659L922.428 186.836" stroke="white"/>
<path d="M858.184 15.7927L823.996 79.3393" stroke="white"/>
<path d="M682.084 380.512L644.916 449.599" stroke="white"/>
<path d="M592.074 296.368L546.237 309.796" stroke="white"/>
<path d="M889.63 207.031L936.289 193.014" stroke="white"/>
<circle cx="4.30691" cy="4.30691" r="3.80691" transform="matrix(0.957722 -0.287695 -0.287695 -0.957722 640.372 458.449)" stroke="white"/>
<circle cx="4.30691" cy="4.30691" r="3.80691" transform="matrix(0.957722 -0.287695 -0.287695 -0.957722 593.192 300.974)" stroke="white"/>
<path d="M691.955 391.477L694.741 385.34" stroke="white"/>
<path d="M705.009 395.812L707.158 389.425" stroke="white"/>
<path d="M718.7 398.482L720.251 391.923" stroke="white"/>
<path d="M732.566 400.296L733.298 393.597" stroke="white"/>
<path d="M746.776 400.568L746.006 393.873" stroke="white"/>
<path d="M760.431 399.663L759.367 393.008" stroke="white"/>
<path d="M773.964 397.637L772.303 391.106" stroke="white"/>
<path d="M787.201 394.374L785.465 387.863" stroke="white"/>
<circle cx="744.254" cy="253.729" r="106.865" transform="rotate(-16.72 744.254 253.729)" stroke="#D9D9D9" stroke-opacity="0.49"/>
<path d="M690.036 354.511C663.307 340.13 643.385 315.721 634.652 286.652C625.92 257.583 629.093 226.235 643.474 199.506" stroke="#D9D9D9" stroke-opacity="0.49"/>
<path d="M845.325 307.863C859.706 281.134 862.879 249.787 854.146 220.718C845.414 191.648 825.492 167.239 798.762 152.858" stroke="#D9D9D9" stroke-opacity="0.49"/>
<path d="M621.886 166.32C641.306 139.888 668.76 120.451 700.143 110.917C731.527 101.383 765.153 102.264 795.994 113.428" stroke="#D9D9D9" stroke-opacity="0.49" stroke-width="1.14271"/>
<path d="M622.317 166.482L613.192 161.408" stroke="#D9D9D9" stroke-opacity="0.49"/>
<path d="M795.875 113.99L800.903 105.438" stroke="#D9D9D9" stroke-opacity="0.49"/>
</g>
<defs>
<clipPath id="clip0_215_2078">
<rect width="1478" height="536" fill="white"/>
</clipPath>
</defs>
</svg>
