<svg width="129" height="73" viewBox="0 0 129 73" fill="none" xmlns="http://www.w3.org/2000/svg">
<g clipPath="url(#clip0_1_6769)">
<path d="M64.0019 16.3106C62.6383 16.3086 61.3047 16.7113 60.1701 17.4676C59.0354 18.224 58.1507 19.3 57.628 20.5594C57.1052 21.8189 56.9679 23.2051 57.2335 24.5426C57.499 25.8802 58.1555 27.1088 59.1197 28.0731C60.0839 29.0373 61.3126 29.6937 62.6501 29.9593C63.9876 30.2248 65.3739 30.0875 66.6333 29.5648C67.8928 29.042 68.9688 28.1573 69.7251 27.0227C70.4815 25.8881 70.8842 24.5545 70.8822 23.1909C70.8795 21.3669 70.1538 19.6184 68.8641 18.3287C67.5743 17.0389 65.8258 16.3132 64.0019 16.3106Z" fill="white"/>
<path d="M126.14 2.47033H126.02L116.509 0.470233C113.146 -0.233328 109.647 0.141096 106.509 1.54028L104.449 2.46032V1.12026C104.449 0.855032 104.343 0.600666 104.156 0.413121C103.968 0.225576 103.714 0.120215 103.449 0.120215C103.184 0.120215 102.929 0.225576 102.742 0.413121C102.554 0.600666 102.449 0.855032 102.449 1.12026V2.45032L100.399 1.53028C97.2597 0.134407 93.7614 -0.239903 90.3982 0.460231L80.8377 2.46032C78.8376 2.97035 78.8376 4.93044 78.8976 5.66047V5.90049C78.9003 6.55744 79.1624 7.18674 79.627 7.65128C80.0915 8.11582 80.7208 8.37797 81.3778 8.3806H102.459V11.4407H100.999C100.485 11.4401 99.991 11.637 99.6186 11.9908C99.2463 12.3445 99.0243 12.8279 98.9986 13.3408L98.7086 18.4611H79.7077L74.4674 9.39065C74.1184 8.78607 73.6172 8.28336 73.0137 7.93248C72.4102 7.5816 71.7254 7.39477 71.0273 7.39055H56.8366C56.1368 7.39302 55.4499 7.57903 54.8445 7.93C54.2391 8.28096 53.7363 8.78461 53.3864 9.39065L48.1562 18.4511H29.1553L28.8553 13.3308C28.8296 12.8179 28.6076 12.3345 28.2353 11.9808C27.8629 11.627 27.3688 11.4301 26.8552 11.4307H25.5752V8.3706H46.6561C47.3148 8.3706 47.9467 8.10963 48.4134 7.6448C48.8801 7.17997 49.1436 6.54917 49.1463 5.89048V5.75048C49.2483 5.07964 49.12 4.39401 48.7821 3.80552C48.4443 3.21704 47.9169 2.76046 47.2862 2.51033H47.1662L37.6457 0.510232C34.2827 -0.195396 30.7828 0.1791 27.6453 1.58029L25.5852 2.50033V1.12026C25.5852 0.855032 25.4798 0.600666 25.2923 0.413121C25.1047 0.225576 24.8503 0.120215 24.5851 0.120215C24.3199 0.120215 24.0655 0.225576 23.878 0.413121C23.6904 0.600666 23.5851 0.855032 23.5851 1.12026V2.45032L21.585 1.53028C18.4455 0.136384 14.9479 -0.237858 11.5845 0.460231L1.99406 2.45032C-0.00603098 2.96035 -0.00603101 4.92044 0.0439713 5.65047V5.89048C0.0439236 6.54309 0.301098 7.16941 0.759741 7.63367C1.21838 8.09793 1.84153 8.3627 2.49409 8.3706H23.5751V11.4307H22.155C21.6414 11.4301 21.1473 11.627 20.7749 11.9808C20.4026 12.3345 20.1806 12.8179 20.1549 13.3308L19.2649 28.6215C19.2471 28.9265 19.292 29.2318 19.3966 29.5188C19.5012 29.8057 19.6634 30.0683 19.8732 30.2903C20.083 30.5122 20.336 30.689 20.6166 30.8096C20.8972 30.9302 21.1995 30.9922 21.505 30.9916H27.5653C27.8703 30.9921 28.1722 30.9303 28.4525 30.8099C28.7328 30.6895 28.9856 30.5131 29.1953 30.2916C29.5369 29.9268 29.7479 29.4591 29.7954 28.9616H48.1562L53.3864 38.032C53.7363 38.638 54.2391 39.1417 54.8445 39.4926C55.4499 39.8436 56.1368 40.0296 56.8366 40.0321H71.0773C71.7754 40.0279 72.4602 39.841 73.0637 39.4901C73.6672 39.1393 74.1684 38.6366 74.5174 38.032L79.7577 28.9616H98.1285C98.1856 29.5123 98.4456 30.0221 98.8578 30.3918C99.27 30.7615 99.805 30.9646 100.359 30.9616H106.419C106.724 30.9621 107.026 30.9003 107.306 30.7799C107.587 30.6595 107.839 30.4831 108.049 30.2616C108.256 30.0376 108.417 29.7746 108.522 29.4879C108.627 29.2012 108.673 28.8965 108.659 28.5915L107.759 13.3008C107.733 12.7879 107.511 12.3045 107.139 11.9508C106.767 11.597 106.272 11.4001 105.759 11.4007H104.439V8.3706H125.53C126.186 8.36795 126.814 8.10549 127.277 7.64066C127.74 7.17584 128 6.54652 128 5.89048V5.75048C128.112 5.07345 127.988 4.37855 127.65 3.78164C127.311 3.18474 126.778 2.72191 126.14 2.47033ZM63.9969 32.0817C62.2382 32.0837 60.5183 31.5639 59.055 30.5883C57.5916 29.6126 56.4506 28.2248 55.7761 26.6004C55.1017 24.9761 54.9242 23.1882 55.2661 21.463C55.608 19.7378 56.454 18.1527 57.6969 16.9084C58.9399 15.664 60.524 14.8163 62.2488 14.4724C63.9737 14.1286 65.7617 14.3041 67.3868 14.9767C69.0119 15.6493 70.401 16.7888 71.3784 18.251C72.3557 19.7132 72.8774 21.4325 72.8774 23.1913C72.8747 25.5466 71.9386 27.8049 70.274 29.4713C68.6095 31.1377 66.3523 32.0764 63.9969 32.0817Z" fill="#FCFCFC"/>
<path d="M96.9567 40.4685L95.5479 45.7239L98.7752 48.9173C99.185 49.3214 99.2662 49.9313 98.9773 50.4299L95.3288 56.7372C95.0418 57.2357 94.4734 57.468 93.9182 57.3169L89.5465 56.1197L85.6998 59.9664L86.8971 64.338C87.0481 64.8932 86.8159 65.4598 86.3173 65.7487L80.01 69.3971C79.5115 69.686 78.9015 69.6029 78.4974 69.195L75.3041 65.9677L70.0505 67.3765L68.9005 71.7614C68.7551 72.3185 68.2679 72.6924 67.6919 72.6924H60.4045C59.8285 72.6924 59.3432 72.3166 59.1959 71.7614L58.0459 67.3765L52.7923 65.9677L49.599 69.195C49.1949 69.6048 48.5849 69.686 48.0864 69.3971L41.7791 65.7487C41.2805 65.4617 41.0483 64.8932 41.1993 64.338L42.3966 59.9664L38.5499 56.1197L34.1782 57.3169C33.623 57.468 33.0565 57.2357 32.7676 56.7372L29.1192 50.4299C28.8302 49.9313 28.9133 49.3214 29.3212 48.9173L32.5485 45.7239L31.1398 40.4685L17.7773 38.4857V35.6134H34.5106C36.839 35.6134 38.0759 36.6426 39.3449 38.429C41.2447 50.36 51.5781 59.4792 64.0416 59.4792C76.5051 59.4792 86.9688 50.2486 88.7742 38.2099C90.0281 36.4462 91.2876 35.4453 93.5745 35.4453H110.308V38.4875L96.9453 40.4704L96.9567 40.4685Z" fill="white"/>
</g>
<defs>
<clipPath id="clip0_1_6769">
<rect width="128.256" height="72.7534" fill="white"/>
</clipPath>
</defs>
</svg>
