<svg width="121" height="100" viewBox="0 0 121 100" fill="none" xmlns="http://www.w3.org/2000/svg">
<path d="M118.741 18.1764H118.629L109.71 16.3008C106.556 15.641 103.274 15.9921 100.331 17.3042L98.3994 18.1671V16.9103C98.3994 16.6616 98.3006 16.4231 98.1247 16.2472C97.9489 16.0713 97.7103 15.9725 97.4616 15.9725C97.2129 15.9725 96.9743 16.0713 96.7984 16.2472C96.6226 16.4231 96.5237 16.6616 96.5237 16.9103V18.1577L94.6012 17.2949C91.6574 15.9858 88.3768 15.6348 85.2227 16.2914L76.2569 18.1671C74.3812 18.6454 74.3812 20.4835 74.4375 21.1682V21.3932C74.44 22.0093 74.6858 22.5995 75.1215 23.0351C75.5571 23.4708 76.1473 23.7166 76.7634 23.7191H96.5331V26.5889H95.1639C94.6822 26.5883 94.2188 26.773 93.8697 27.1047C93.5205 27.4364 93.3123 27.8898 93.2882 28.3708L93.0162 33.1726H75.1972L70.2829 24.6663C69.9555 24.0993 69.4855 23.6279 68.9196 23.2989C68.3536 22.9698 67.7113 22.7946 67.0567 22.7906H53.7487C53.0924 22.7929 52.4482 22.9674 51.8805 23.2965C51.3127 23.6257 50.8412 24.098 50.5131 24.6663L45.6082 33.1632H27.7891L27.5078 28.3614C27.4837 27.8804 27.2755 27.4271 26.9263 27.0953C26.5771 26.7636 26.1137 26.5789 25.6321 26.5795H24.4317V23.7097H44.2014C44.8191 23.7097 45.4117 23.465 45.8494 23.0291C46.287 22.5932 46.5342 22.0016 46.5366 21.3839V21.2526C46.6324 20.6235 46.512 19.9805 46.1952 19.4286C45.8783 18.8767 45.3838 18.4485 44.7923 18.214H44.6797L35.7514 16.3383C32.5976 15.6765 29.3154 16.0277 26.373 17.3418L24.441 18.2046V16.9103C24.441 16.6616 24.3422 16.4231 24.1663 16.2472C23.9905 16.0713 23.7519 15.9725 23.5032 15.9725C23.2545 15.9725 23.0159 16.0713 22.84 16.2472C22.6642 16.4231 22.5653 16.6616 22.5653 16.9103V18.1577L20.6897 17.2949C17.7454 15.9877 14.4654 15.6367 11.3112 16.2914L2.31729 18.1577C0.4416 18.636 0.4416 20.4742 0.488493 21.1588V21.3839C0.488448 21.9959 0.729627 22.5832 1.15974 23.0186C1.58986 23.454 2.17424 23.7023 2.78621 23.7097H22.556V26.5795H21.2242C20.7426 26.5789 20.2792 26.7636 19.93 27.0953C19.5808 27.4271 19.3726 27.8804 19.3485 28.3614L18.5139 42.7011C18.4972 42.987 18.5393 43.2734 18.6374 43.5425C18.7355 43.8116 18.8876 44.0578 19.0843 44.266C19.2811 44.4742 19.5183 44.6399 19.7815 44.753C20.0447 44.8661 20.3282 44.9242 20.6146 44.9238H26.298C26.584 44.9242 26.8672 44.8662 27.1301 44.7533C27.3929 44.6404 27.63 44.475 27.8267 44.2673C28.147 43.9251 28.3449 43.4865 28.3894 43.0199H45.6082L50.5131 51.5262C50.8412 52.0945 51.3127 52.5668 51.8805 52.896C52.4482 53.2251 53.0924 53.3996 53.7487 53.4019H67.1036C67.7582 53.3979 68.4005 53.2227 68.9664 52.8937C69.5324 52.5646 70.0024 52.0932 70.3298 51.5262L75.2441 43.0199H92.4723C92.5258 43.5364 92.7696 44.0145 93.1561 44.3612C93.5427 44.7079 94.0444 44.8984 94.5637 44.8956H100.247C100.533 44.896 100.816 44.838 101.079 44.7252C101.342 44.6123 101.579 44.4469 101.776 44.2391C101.97 44.0291 102.121 43.7824 102.219 43.5135C102.317 43.2446 102.361 42.9589 102.348 42.6729L101.504 28.3333C101.48 27.8523 101.271 27.3989 100.922 27.0672C100.573 26.7355 100.11 26.5508 99.628 26.5514H98.3901V23.7097H118.169C118.784 23.7072 119.374 23.4611 119.808 23.0252C120.242 22.5893 120.486 21.9991 120.486 21.3839V21.2526C120.591 20.6177 120.475 19.966 120.157 19.4062C119.84 18.8464 119.34 18.4124 118.741 18.1764ZM60.4636 45.946C58.8142 45.9479 57.2014 45.4605 55.829 44.5455C54.4567 43.6305 53.3866 42.329 52.7542 40.8057C52.1217 39.2824 51.9552 37.6057 52.2759 35.9878C52.5965 34.3699 53.3898 32.8834 54.5555 31.7164C55.7211 30.5495 57.2067 29.7545 58.8242 29.432C60.4418 29.1096 62.1187 29.2741 63.6427 29.9049C65.1667 30.5357 66.4694 31.6043 67.3859 32.9756C68.3025 34.3469 68.7917 35.9592 68.7917 37.6086C68.7892 39.8174 67.9113 41.9352 66.3503 43.498C64.7893 45.0607 62.6725 45.941 60.4636 45.946Z" fill="#FCFCFC"/>
<path d="M91.3736 53.8118L90.0524 58.7404L93.079 61.7351C93.4633 62.1141 93.5394 62.6861 93.2685 63.1536L89.847 69.0686C89.5778 69.5361 89.0448 69.754 88.5241 69.6123L84.4243 68.4895L80.8169 72.0969L81.9397 76.1967C82.0814 76.7174 81.8635 77.2486 81.396 77.5196L75.481 80.9411C75.0135 81.212 74.4414 81.1341 74.0625 80.7516L71.0678 77.725L66.141 79.0462L65.0625 83.1583C64.9261 83.6808 64.4692 84.0314 63.9291 84.0314H57.0949C56.5548 84.0314 56.0997 83.679 55.9615 83.1583L54.883 79.0462L49.9562 77.725L46.9615 80.7516C46.5825 81.1359 46.0105 81.212 45.543 80.9411L39.628 77.5196C39.1605 77.2504 38.9426 76.7174 39.0843 76.1967L40.2071 72.0969L36.5997 68.4895L32.4999 69.6123C31.9792 69.754 31.4479 69.5361 31.177 69.0686L27.7555 63.1536C27.4845 62.6861 27.5625 62.1141 27.945 61.7351L30.9716 58.7404L29.6504 53.8118L17.1191 51.9523V49.2587H32.8116C34.9952 49.2587 36.1551 50.2239 37.3452 51.8992C39.1268 63.0881 48.8175 71.64 60.5058 71.64C72.1941 71.64 82.007 62.9836 83.7 51.6938C84.8759 50.0397 86.0572 49.1011 88.2018 49.1011H103.894V51.9541L91.3629 53.8136L91.3736 53.8118Z" fill="white"/>
</svg>
