<svg width="121" height="100" viewBox="0 0 121 100" fill="none" xmlns="http://www.w3.org/2000/svg">
<path d="M102.35 71.4844L84.1538 88.3486L74.4526 77.9971L78.4009 74.2969L84.4106 80.7109L84.4292 80.7305L84.4487 80.7119L98.6812 67.5088L102.35 71.4844Z" fill="white" stroke="white" stroke-width="0.0546345"/>
<path d="M66.0659 5.47559L68.7534 12.458L68.9116 12.8672L69.3384 12.9697C73.2564 13.9022 76.9992 15.4553 80.4292 17.5674L80.8042 17.7979L81.2056 17.6191L88.0474 14.5801L95.9185 22.4512L92.8813 29.292L92.7026 29.6934L92.9331 30.0684C95.0459 33.499 96.6002 37.2429 97.5327 41.1621L97.6343 41.5889L98.0444 41.7471L105.025 44.4336V55.5654L98.0425 58.2529L97.8423 58.3301C95.4875 57.1404 92.8864 56.3686 90.1353 56.1133C90.541 54.1384 90.7563 52.0941 90.7563 50C90.7563 33.289 77.2118 19.7443 60.5005 19.7441C43.7896 19.7441 30.2446 33.2889 30.2446 50C30.2447 66.711 43.7896 80.2559 60.5005 80.2559C62.5947 80.2558 64.6389 80.0395 66.6138 79.6338C66.869 82.3854 67.6396 84.9875 68.8296 87.3428L68.7534 87.5439L66.0669 94.5244H54.9341L52.2466 87.542L52.0894 87.1318L51.6616 87.0303L50.9292 86.8477C47.277 85.9009 43.7867 84.4117 40.5708 82.4316L40.1968 82.2012L39.7944 82.3799L32.9526 85.418L25.0806 77.5469L28.1187 70.707L28.2974 70.3057L28.0669 69.9316C25.9541 66.5011 24.401 62.7569 23.4683 58.8379L23.3667 58.4102L22.9565 58.252L15.9761 55.5654V44.4336L22.9575 41.7461L23.3677 41.5889L23.4692 41.1611C24.4017 37.2427 25.9556 33.4995 28.0679 30.0693L28.2983 29.6953L28.1196 29.2939L25.0806 22.4521L32.9517 14.5811L39.7944 17.6191L40.1968 17.7979L40.5708 17.5674C44.001 15.4554 47.7436 13.9022 51.6616 12.9697L52.0894 12.8672L52.2466 12.458L54.9341 5.47559H66.0659ZM48.7349 56.1777C53.058 56.1777 56.6787 59.1947 57.604 63.2383C57.6204 63.3104 57.5703 63.373 57.4956 63.373H39.9741C39.8999 63.373 39.8495 63.3106 39.8657 63.2383C40.7909 59.1946 44.4116 56.1777 48.7349 56.1777ZM72.2651 56.1777C74.5476 56.1777 76.6312 57.0199 78.229 58.4092C75.8113 59.6564 73.6615 61.3478 71.8833 63.373H63.5044C63.4299 63.373 63.3805 63.3108 63.397 63.2383C64.3221 59.1946 67.9419 56.1779 72.2651 56.1777ZM48.7349 44.2441C51.0476 44.2441 52.9222 46.1189 52.9224 48.4316C52.9224 50.7445 51.0477 52.6201 48.7349 52.6201C46.4219 52.6201 44.5474 50.7445 44.5474 48.4316C44.5475 46.1189 46.4221 44.2442 48.7349 44.2441ZM72.2651 44.2441C74.5779 44.2441 76.4535 46.1189 76.4536 48.4316C76.4536 50.7445 74.578 52.6201 72.2651 52.6201C69.9524 52.6199 68.0776 50.7444 68.0776 48.4316C68.0778 46.119 69.9525 44.2443 72.2651 44.2441ZM60.5005 42.8896C61.9918 42.8897 63.3972 43.2494 64.6382 43.8848C63.5282 45.7474 63.141 47.9625 63.5415 50.0859H57.4595C57.86 47.9622 57.4711 45.7476 56.3608 43.8848C57.6022 43.2491 59.0086 42.8896 60.5005 42.8896ZM60.5005 30.9561C62.8133 30.9562 64.688 32.8317 64.688 35.1445C64.6877 37.4571 62.8131 39.3319 60.5005 39.332C58.1878 39.332 56.3123 37.4572 56.312 35.1445C56.312 32.8317 58.1876 30.9561 60.5005 30.9561Z" fill="#FCFCFC" stroke="#6D6D6F" stroke-width="1.66801"/>
<path d="M48.7437 54.8975C53.6629 54.8977 57.779 58.3302 58.8315 62.9297C59.0274 63.7855 58.3821 64.5945 57.5044 64.5947H39.9819C39.1043 64.5945 38.4591 63.7854 38.6548 62.9297C39.7072 58.3298 43.824 54.8973 48.7437 54.8975ZM72.2739 54.8975C75.3347 54.8976 78.0849 56.2274 79.979 58.3389L80.3608 58.7646L79.8384 58.998C77.0277 60.2532 74.5536 62.1271 72.5894 64.4473L72.4644 64.5947H63.5122C62.6344 64.5945 61.9893 63.7856 62.1851 62.9297C63.2374 58.3298 67.3543 54.8975 72.2739 54.8975ZM48.7427 42.9639C51.7464 42.9639 54.182 45.3987 54.1821 48.4023C54.1821 51.4061 51.7464 53.8418 48.7427 53.8418C45.7389 53.8416 43.3042 51.406 43.3042 48.4023C43.3043 45.3988 45.7391 42.9641 48.7427 42.9639ZM72.2739 42.9639C75.2775 42.9641 77.7123 45.3988 77.7124 48.4023C77.7124 51.406 75.2775 53.8416 72.2739 53.8418C69.2702 53.8418 66.8345 51.4061 66.8345 48.4023C66.8346 45.3987 69.2702 42.9639 72.2739 42.9639ZM60.5083 41.6094C62.5509 41.6094 64.4564 42.2024 66.061 43.2246L66.4409 43.4668L66.1704 43.8271C64.6831 45.8073 64.2533 48.4113 65.0171 50.7617L65.1948 51.3076H55.8218L55.9995 50.7617C56.7633 48.4113 56.3346 45.8066 54.8472 43.8262L54.5767 43.4668L54.9565 43.2246C56.561 42.2027 58.4658 41.6094 60.5083 41.6094ZM60.5083 29.6758C63.5119 29.6758 65.9475 32.1107 65.9478 35.1143C65.9478 38.118 63.5121 40.5537 60.5083 40.5537C57.5046 40.5537 55.0698 38.118 55.0698 35.1143C55.0701 32.1107 57.5047 29.6758 60.5083 29.6758Z" fill="white" stroke="white" stroke-width="0.834007"/>
</svg>
