<svg width="91" height="91" viewBox="0 0 91 91" fill="none" xmlns="http://www.w3.org/2000/svg">
<path d="M50.9238 0.833984L53.6113 7.81641L53.7695 8.22559L54.1963 8.32812C58.1143 9.26057 61.8571 10.8137 65.2871 12.9258L65.6621 13.1562L66.0635 12.9775L72.9053 9.93848L80.7764 17.8096L77.7393 24.6504L77.5605 25.0518L77.791 25.4268C79.9038 28.8574 81.4582 32.6013 82.3906 36.5205L82.4922 36.9473L82.9023 37.1055L89.8828 39.792V50.9238L82.9004 53.6113L82.7002 53.6885C80.3454 52.4988 77.7443 51.727 74.9932 51.4717C75.3989 49.4968 75.6142 47.4525 75.6143 45.3584C75.6143 28.6474 62.0697 15.1027 45.3584 15.1025C28.6475 15.1025 15.1025 28.6473 15.1025 45.3584C15.1026 62.0694 28.6475 75.6143 45.3584 75.6143C47.4527 75.6142 49.4968 75.3979 51.4717 74.9922C51.7269 77.7438 52.4975 80.3459 53.6875 82.7012L53.6113 82.9023L50.9248 89.8828H39.792L37.1045 82.9004L36.9473 82.4902L36.5195 82.3887L35.7871 82.2061C32.1349 81.2593 28.6446 79.7701 25.4287 77.79L25.0547 77.5596L24.6523 77.7383L17.8105 80.7764L9.93848 72.9053L12.9766 66.0654L13.1553 65.6641L12.9248 65.29C10.812 61.8595 9.25887 58.1153 8.32617 54.1963L8.22461 53.7686L7.81445 53.6104L0.833984 50.9238V39.792L7.81543 37.1045L8.22559 36.9473L8.32715 36.5195C9.25963 32.6011 10.8135 28.8579 12.9258 25.4277L13.1562 25.0537L12.9775 24.6523L9.93848 17.8105L17.8096 9.93945L24.6523 12.9775L25.0547 13.1562L25.4287 12.9258C28.8589 10.8138 32.6015 9.26057 36.5195 8.32812L36.9473 8.22559L37.1045 7.81641L39.792 0.833984H50.9238ZM33.5928 51.5361C37.9159 51.5361 41.5366 54.5531 42.4619 58.5967C42.4783 58.6688 42.4282 58.7314 42.3535 58.7314H24.832C24.7578 58.7314 24.7074 58.669 24.7236 58.5967C25.6488 54.553 29.2696 51.5361 33.5928 51.5361ZM57.123 51.5361C59.4055 51.5361 61.4891 52.3783 63.0869 53.7676C60.6692 55.0148 58.5194 56.7062 56.7412 58.7314H48.3623C48.2878 58.7314 48.2384 58.6692 48.2549 58.5967C49.18 54.553 52.7999 51.5363 57.123 51.5361ZM33.5928 39.6025C35.9055 39.6025 37.7801 41.4773 37.7803 43.79C37.7803 46.1029 35.9056 47.9785 33.5928 47.9785C31.2798 47.9785 29.4053 46.1029 29.4053 43.79C29.4054 41.4773 31.28 39.6026 33.5928 39.6025ZM57.123 39.6025C59.4358 39.6025 61.3114 41.4773 61.3115 43.79C61.3115 46.1029 59.4359 47.9785 57.123 47.9785C54.8103 47.9783 52.9355 46.1028 52.9355 43.79C52.9357 41.4774 54.8104 39.6027 57.123 39.6025ZM45.3584 38.248C46.8497 38.2481 48.2551 38.6078 49.4961 39.2432C48.3861 41.1058 47.9989 43.3209 48.3994 45.4443H42.3174C42.7179 43.3206 42.329 41.106 41.2188 39.2432C42.4601 38.6075 43.8665 38.248 45.3584 38.248ZM45.3584 26.3145C47.6712 26.3146 49.5459 28.1901 49.5459 30.5029C49.5456 32.8155 47.671 34.6903 45.3584 34.6904C43.0457 34.6904 41.1702 32.8156 41.1699 30.5029C41.1699 28.1901 43.0455 26.3145 45.3584 26.3145Z" fill="#FCFCFC" stroke="#6D6D6F" stroke-width="1.66801"/>
</svg>
